<?xml version="1.0" standalone="no"?><!DOCTYPE svg PUBLIC "-//W3C//DTD SVG 1.1//EN" "http://www.w3.org/Graphics/SVG/1.1/DTD/svg11.dtd"><svg t="1657901972658" class="icon" viewBox="0 0 1024 1024" version="1.1" xmlns="http://www.w3.org/2000/svg" p-id="617" xmlns:xlink="http://www.w3.org/1999/xlink" width="200" height="200"><defs><style type="text/css">@font-face { font-family: feedback-iconfont; src: url("//at.alicdn.com/t/font_1031158_u69w8yhxdu.woff2?t=1630033759944") format("woff2"), url("//at.alicdn.com/t/font_1031158_u69w8yhxdu.woff?t=1630033759944") format("woff"), url("//at.alicdn.com/t/font_1031158_u69w8yhxdu.ttf?t=1630033759944") format("truetype"); }
</style></defs><path d="M70.4 660.2c17.5-29.1 39.7-24.8 58.6-26.6 42.7-4.2 85.7-5.1 128.2-10.5 70.8-9 93.1-34.4 97.2-105.6 1.4-25.1 1.3-50.2 3.1-75.3 2.4-34.4 18.4-59.8 51.7-72.5 7.5-2.9 14.9-6.1 22.5-9.1 40.6-16 49.5-34.7 30.5-75-13.3-28.2-15.1-55.7-7.1-84.9 8.1-29.3 28.6-45 58.3-45 30.2 0 53.5 14.6 57.7 44.4 3.5 25.3-0.9 51.9-3.6 77.8-1.4 13.4-8.1 26.3-9.7 39.7-2 16.9 6 29.8 22.1 36.7 7.4 3.2 15.1 5.8 22.6 8.6 53.3 20.4 68.8 42.4 70.4 100 0.5 17 0.1 34 0.2 51.1 0.3 70.4 25.5 100.2 96.1 108.9 42.5 5.2 85.5 6.3 128.2 10.5 18.4 1.8 36.5 6.7 54.8 10.2 0.4 3.8-19.5 23-30.5 26.8-7.4 2.5-16 1.8-24.1 2.2-24.6 1.2-36.3 10-35.8 38.6 0.7 48-24.2 71-72.3 77.6-18.2 2.5-36.6 6.6-53.7 13.1-14.5 5.5-18.2 16.3-6.9 30.7 5.6 7.2-10.4 34.7-20.5 35-22.6 0.6-380 1.3-393.6 0.5-8.6-0.5-23.9-25-20.1-30.9 14.6-22.7 12.6-32.1-13.1-40.3-14.5-4.6-29.9-6.6-45.1-8.5-43.1-5.3-63.7-24.9-69.6-67.4-0.4-3.2-1-6.4-1.4-9.6-4.6-35.8-4.7-35.3-42.9-39.9-16-1.8-31.7-6.7-52.2-11.3z" fill="#2F4F4F" p-id="618"></path></svg>